<?xml version="1.0" encoding="UTF-8"?>
<svg width="13px" height="29px" viewBox="0 0 13 29" version="1.1" xmlns="http://www.w3.org/2000/svg" xmlns:xlink="http://www.w3.org/1999/xlink">
    <!-- Generator: Sketch 46.2 (44496) - http://www.bohemiancoding.com/sketch -->
    <title>2 copy</title>
    <desc>Created with Sketch.</desc>
    <defs></defs>
    <g id="Page-1" stroke="none" stroke-width="1" fill="none" fill-rule="evenodd">
        <g id="1280*800" transform="translate(-567.000000, -703.000000)" fill="#565B60">
            <path d="M567.36,732 L567.36,728.16 L574.72,714.28 C575.093335,713.586663 575.306666,712.980003 575.36,712.46 C575.413334,711.939997 575.44,711.293337 575.44,710.52 C575.44,710.173332 575.433333,709.806669 575.42,709.42 C575.406667,709.033331 575.333334,708.693335 575.2,708.4 C575.066666,708.106665 574.866668,707.860001 574.6,707.66 C574.333332,707.459999 573.946669,707.36 573.44,707.36 C572.826664,707.36 572.340002,707.533332 571.98,707.88 C571.619998,708.226668 571.44,708.73333 571.44,709.4 L571.44,711.72 L567.36,711.72 L567.36,709.48 C567.36,708.626662 567.519998,707.82667 567.84,707.08 C568.160002,706.33333 568.599997,705.680003 569.16,705.12 C569.693336,704.559997 570.33333,704.113335 571.08,703.78 C571.82667,703.446665 572.626662,703.28 573.48,703.28 C574.546672,703.28 575.459996,703.473331 576.22,703.86 C576.980004,704.246669 577.613331,704.77333 578.12,705.44 C578.600002,706.10667 578.953332,706.866662 579.18,707.72 C579.406668,708.573338 579.52,709.479995 579.52,710.44 C579.52,711.133337 579.506667,711.713331 579.48,712.18 C579.453333,712.646669 579.4,713.093331 579.32,713.52 C579.24,713.946669 579.106668,714.373331 578.92,714.8 C578.733332,715.226669 578.480002,715.746664 578.16,716.36 L572.16,727.92 L579.52,727.92 L579.52,732 L567.36,732 Z" id="2-copy"></path>
        </g>
    </g>
</svg>