<?xml version="1.0" encoding="UTF-8"?>
<svg width="13px" height="30px" viewBox="0 0 13 30" version="1.1" xmlns="http://www.w3.org/2000/svg" xmlns:xlink="http://www.w3.org/1999/xlink">
    <!-- Generator: Sketch 46.2 (44496) - http://www.bohemiancoding.com/sketch -->
    <title>3 copy</title>
    <desc>Created with Sketch.</desc>
    <defs></defs>
    <g id="Page-1" stroke="none" stroke-width="1" fill="none" fill-rule="evenodd">
        <g id="1280*800" transform="translate(-723.000000, -703.000000)" fill="#565B60">
            <path d="M728.2,715.52 C729.426673,715.52 730.273331,715.373335 730.74,715.08 C731.206669,714.786665 731.44,714.106672 731.44,713.04 L731.44,709.36 C731.44,708.77333 731.260002,708.293335 730.9,707.92 C730.539998,707.546665 730.053336,707.36 729.44,707.36 C728.719996,707.36 728.206668,707.586664 727.9,708.04 C727.593332,708.493336 727.44,708.933331 727.44,709.36 L727.44,711.68 L723.36,711.68 L723.36,709.32 C723.36,708.493329 723.519998,707.70667 723.84,706.96 C724.160002,706.21333 724.599997,705.573336 725.16,705.04 C725.720003,704.506664 726.37333,704.080002 727.12,703.76 C727.86667,703.439998 728.666662,703.28 729.52,703.28 C730.640006,703.28 731.566663,703.499998 732.3,703.94 C733.033337,704.380002 733.586665,704.826664 733.96,705.28 C734.226668,705.600002 734.459999,705.919998 734.66,706.24 C734.860001,706.560002 735.026666,706.946664 735.16,707.4 C735.400001,708.280004 735.52,709.586658 735.52,711.32 C735.52,712.306672 735.5,713.106664 735.46,713.72 C735.42,714.333336 735.320001,714.839998 735.16,715.24 C734.973332,715.666669 734.713335,716.026665 734.38,716.32 C734.046665,716.613335 733.58667,716.933332 733,717.28 C733.640003,717.680002 734.126665,718.053332 734.46,718.4 C734.793335,718.746668 735.039999,719.146664 735.2,719.6 C735.360001,720.080002 735.453333,720.646663 735.48,721.3 C735.506667,721.953337 735.52,722.786662 735.52,723.8 C735.52,724.733338 735.5,725.506664 735.46,726.12 C735.42,726.733336 735.36,727.239998 735.28,727.64 C735.2,728.066669 735.093334,728.426665 734.96,728.72 C734.826666,729.013335 734.653334,729.319998 734.44,729.64 C733.933331,730.38667 733.286671,731.006664 732.5,731.5 C731.713329,731.993336 730.680006,732.24 729.4,732.24 C728.759997,732.24 728.080004,732.133334 727.36,731.92 C726.639996,731.706666 725.98667,731.360002 725.4,730.88 C724.81333,730.399998 724.326669,729.773337 723.94,729 C723.553331,728.226663 723.36,727.280006 723.36,726.16 L723.36,723.84 L727.44,723.84 L727.44,725.96 C727.44,726.600003 727.619998,727.126665 727.98,727.54 C728.340002,727.953335 728.826664,728.16 729.44,728.16 C730.053336,728.16 730.539998,727.953335 730.9,727.54 C731.260002,727.126665 731.44,726.573337 731.44,725.88 L731.44,721.8 C731.44,720.679994 731.226669,719.946668 730.8,719.6 C730.559999,719.386666 730.233335,719.253334 729.82,719.2 C729.406665,719.146666 728.86667,719.12 728.2,719.12 L728.2,715.52 Z" id="3-copy"></path>
        </g>
    </g>
</svg>