<?xml version="1.0" encoding="UTF-8"?>
<svg width="13px" height="30px" viewBox="0 0 13 30" version="1.1" xmlns="http://www.w3.org/2000/svg" xmlns:xlink="http://www.w3.org/1999/xlink">
    <!-- Generator: Sketch 46.2 (44496) - http://www.bohemiancoding.com/sketch -->
    <title>5 copy</title>
    <desc>Created with Sketch.</desc>
    <defs></defs>
    <g id="Page-1" stroke="none" stroke-width="1" fill="none" fill-rule="evenodd">
        <g id="1280*800" transform="translate(-1036.000000, -703.000000)" fill="#565B60">
            <path d="M1048.52,703.52 L1048.52,707.36 L1040.44,707.36 L1040.44,715.04 C1040.81334,714.666665 1041.29333,714.353335 1041.88,714.1 C1042.46667,713.846665 1043.12,713.72 1043.84,713.72 C1045.22667,713.72 1046.35333,714.139996 1047.22,714.98 C1048.08667,715.820004 1048.52,717.079992 1048.52,718.76 L1048.52,726.12 C1048.52,727.080005 1048.35334,727.93333 1048.02,728.68 C1047.68666,729.42667 1047.24,730.066664 1046.68,730.6 C1046.12,731.133336 1045.47334,731.539999 1044.74,731.82 C1044.00666,732.100001 1043.24,732.24 1042.44,732.24 C1041.64,732.24 1040.87334,732.100001 1040.14,731.82 C1039.40666,731.539999 1038.76,731.133336 1038.2,730.6 C1037.64,730.066664 1037.19333,729.42667 1036.86,728.68 C1036.52667,727.93333 1036.36,727.080005 1036.36,726.12 L1036.36,724.92 L1040.44,724.92 L1040.44,725.96 C1040.44,726.653337 1040.63333,727.193331 1041.02,727.58 C1041.40667,727.966669 1041.90666,728.16 1042.52,728.16 C1043.13334,728.16 1043.60667,727.973335 1043.94,727.6 C1044.27334,727.226665 1044.44,726.70667 1044.44,726.04 L1044.44,719.36 C1044.44,718.799997 1044.26,718.320002 1043.9,717.92 C1043.54,717.519998 1043.08,717.32 1042.52,717.32 C1042.17333,717.32 1041.88,717.379999 1041.64,717.5 C1041.4,717.620001 1041.2,717.759999 1041.04,717.92 C1040.88,718.080001 1040.76,718.253332 1040.68,718.44 C1040.54667,718.680001 1040.46667,718.826666 1040.44,718.88 L1036.84,718.88 L1036.84,703.52 L1048.52,703.52 Z" id="5-copy"></path>
        </g>
    </g>
</svg>